<?xml version="1.0" encoding="utf-8" standalone="no"?>
<!DOCTYPE svg PUBLIC "-//W3C//DTD SVG 1.1//EN"
  "http://www.w3.org/Graphics/SVG/1.1/DTD/svg11.dtd">
<svg xmlns:xlink="http://www.w3.org/1999/xlink" width="1080pt" height="432pt" viewBox="0 0 1080 432" xmlns="http://www.w3.org/2000/svg" version="1.1">
 <metadata>
  <rdf:RDF xmlns:dc="http://purl.org/dc/elements/1.1/" xmlns:cc="http://creativecommons.org/ns#" xmlns:rdf="http://www.w3.org/1999/02/22-rdf-syntax-ns#">
   <cc:Work>
    <dc:type rdf:resource="http://purl.org/dc/dcmitype/StillImage"/>
    <dc:date>2025-10-10T21:51:28.845765</dc:date>
    <dc:format>image/svg+xml</dc:format>
    <dc:creator>
     <cc:Agent>
      <dc:title>Matplotlib v3.9.2, https://matplotlib.org/</dc:title>
     </cc:Agent>
    </dc:creator>
   </cc:Work>
  </rdf:RDF>
 </metadata>
 <defs>
  <style type="text/css">*{stroke-linejoin: round; stroke-linecap: butt}</style>
 </defs>
 <g id="figure_1">
  <g id="patch_1">
   <path d="M 0 432 
L 1080 432 
L 1080 0 
L 0 0 
z
" style="fill: #ffffff"/>
  </g>
  <g id="axes_1">
   <g id="patch_2">
    <path d="M 45.2 404.84 
L 534.6 404.84 
L 534.6 26.16 
L 45.2 26.16 
z
" style="fill: #ffffff"/>
   </g>
   <g id="patch_3">
    <path d="M 67.445455 404.84 
L 86.178469 404.84 
L 86.178469 74.959625 
L 67.445455 74.959625 
z
" clip-path="url(#p7817d8938f)" style="fill: #4575b4"/>
   </g>
   <g id="patch_4">
    <path d="M 184.526794 404.84 
L 203.259809 404.84 
L 203.259809 139.964103 
L 184.526794 139.964103 
z
" clip-path="url(#p7817d8938f)" style="fill: #4575b4"/>
   </g>
   <g id="patch_5">
    <path d="M 301.608134 404.84 
L 320.341148 404.84 
L 320.341148 225.325855 
L 301.608134 225.325855 
z
" clip-path="url(#p7817d8938f)" style="fill: #4575b4"/>
   </g>
   <g id="patch_6">
    <path d="M 418.689474 404.84 
L 437.422488 404.84 
L 437.422488 67.325647 
L 418.689474 67.325647 
z
" clip-path="url(#p7817d8938f)" style="fill: #4575b4"/>
   </g>
   <g id="patch_7">
    <path d="M 86.178469 404.84 
L 104.911483 404.84 
L 104.911483 56.915677 
L 86.178469 56.915677 
z
" clip-path="url(#p7817d8938f)" style="fill: #fdae61"/>
   </g>
   <g id="patch_8">
    <path d="M 203.259809 404.84 
L 221.992823 404.84 
L 221.992823 135.106117 
L 203.259809 135.106117 
z
" clip-path="url(#p7817d8938f)" style="fill: #fdae61"/>
   </g>
   <g id="patch_9">
    <path d="M 320.341148 404.84 
L 339.074163 404.84 
L 339.074163 229.721175 
L 320.341148 229.721175 
z
" clip-path="url(#p7817d8938f)" style="fill: #fdae61"/>
   </g>
   <g id="patch_10">
    <path d="M 437.422488 404.84 
L 456.155502 404.84 
L 456.155502 57.841008 
L 437.422488 57.841008 
z
" clip-path="url(#p7817d8938f)" style="fill: #fdae61"/>
   </g>
   <g id="patch_11">
    <path d="M 104.911483 404.84 
L 123.644498 404.84 
L 123.644498 98.786889 
L 104.911483 98.786889 
z
" clip-path="url(#p7817d8938f)" style="fill: #66bd63"/>
   </g>
   <g id="patch_12">
    <path d="M 221.992823 404.84 
L 240.725837 404.84 
L 240.725837 175.589333 
L 221.992823 175.589333 
z
" clip-path="url(#p7817d8938f)" style="fill: #66bd63"/>
   </g>
   <g id="patch_13">
    <path d="M 339.074163 404.84 
L 357.807177 404.84 
L 357.807177 212.139893 
L 339.074163 212.139893 
z
" clip-path="url(#p7817d8938f)" style="fill: #66bd63"/>
   </g>
   <g id="patch_14">
    <path d="M 456.155502 404.84 
L 474.888517 404.84 
L 474.888517 116.136839 
L 456.155502 116.136839 
z
" clip-path="url(#p7817d8938f)" style="fill: #66bd63"/>
   </g>
   <g id="patch_15">
    <path d="M 123.644498 404.84 
L 142.377512 404.84 
L 142.377512 44.192381 
L 123.644498 44.192381 
z
" clip-path="url(#p7817d8938f)" style="fill: #d73027"/>
   </g>
   <g id="patch_16">
    <path d="M 240.725837 404.84 
L 259.458852 404.84 
L 259.458852 129.785466 
L 240.725837 129.785466 
z
" clip-path="url(#p7817d8938f)" style="fill: #d73027"/>
   </g>
   <g id="patch_17">
    <path d="M 357.807177 404.84 
L 376.540191 404.84 
L 376.540191 229.952508 
L 357.807177 229.952508 
z
" clip-path="url(#p7817d8938f)" style="fill: #d73027"/>
   </g>
   <g id="patch_18">
    <path d="M 474.888517 404.84 
L 493.621531 404.84 
L 493.621531 55.990347 
L 474.888517 55.990347 
z
" clip-path="url(#p7817d8938f)" style="fill: #d73027"/>
   </g>
   <g id="patch_19">
    <path d="M 142.377512 404.84 
L 161.110526 404.84 
L 161.110526 113.129514 
L 142.377512 113.129514 
z
" clip-path="url(#p7817d8938f)" style="fill: #938ed5"/>
   </g>
   <g id="patch_20">
    <path d="M 259.458852 404.84 
L 278.191866 404.84 
L 278.191866 178.365325 
L 259.458852 178.365325 
z
" clip-path="url(#p7817d8938f)" style="fill: #938ed5"/>
   </g>
   <g id="patch_21">
    <path d="M 376.540191 404.84 
L 395.273206 404.84 
L 395.273206 207.281907 
L 376.540191 207.281907 
z
" clip-path="url(#p7817d8938f)" style="fill: #938ed5"/>
   </g>
   <g id="patch_22">
    <path d="M 493.621531 404.84 
L 512.354545 404.84 
L 512.354545 124.464814 
L 493.621531 124.464814 
z
" clip-path="url(#p7817d8938f)" style="fill: #938ed5"/>
   </g>
   <g id="matplotlib.axis_1">
    <g id="xtick_1">
     <g id="line2d_1">
      <defs>
       <path id="m5e94de9994" d="M 0 0 
L 0 3.5 
" style="stroke: #000000; stroke-width: 0.8"/>
      </defs>
      <g>
       <use xlink:href="#m5e94de9994" x="114.27799" y="404.84" style="stroke: #000000; stroke-width: 0.8"/>
      </g>
     </g>
     <g id="text_1">
      <!-- RMSE -->
      <g transform="translate(99.831897 418.461875) scale(0.1 -0.1)">
       <defs>
        <path id="TimesNewRomanPS-BoldMT-52" d="M 1700 1931 
L 1700 744 
Q 1700 400 1742 311 
Q 1784 222 1890 169 
Q 1997 116 2288 116 
L 2288 0 
L 119 0 
L 119 116 
Q 413 116 517 170 
Q 622 225 664 312 
Q 706 400 706 744 
L 706 3494 
Q 706 3838 664 3927 
Q 622 4016 515 4069 
Q 409 4122 119 4122 
L 119 4238 
L 2088 4238 
Q 2856 4238 3212 4131 
Q 3569 4025 3794 3739 
Q 4019 3453 4019 3069 
Q 4019 2600 3681 2294 
Q 3466 2100 3078 2003 
L 4097 569 
Q 4297 291 4381 222 
Q 4509 125 4678 116 
L 4678 0 
L 3344 0 
L 1978 1931 
L 1700 1931 
z
M 1700 4009 
L 1700 2153 
L 1878 2153 
Q 2313 2153 2528 2233 
Q 2744 2313 2867 2520 
Q 2991 2728 2991 3063 
Q 2991 3547 2764 3778 
Q 2538 4009 2034 4009 
L 1700 4009 
z
" transform="scale(0.015625)"/>
        <path id="TimesNewRomanPS-BoldMT-4d" d="M 3050 1444 
L 4200 4238 
L 5925 4238 
L 5925 4122 
L 5788 4122 
Q 5600 4122 5488 4056 
Q 5409 4013 5363 3909 
Q 5328 3834 5328 3519 
L 5328 725 
Q 5328 400 5362 319 
Q 5397 238 5503 177 
Q 5609 116 5788 116 
L 5925 116 
L 5925 0 
L 3713 0 
L 3713 116 
L 3850 116 
Q 4038 116 4150 181 
Q 4228 225 4275 331 
Q 4309 406 4309 725 
L 4309 3866 
L 2684 0 
L 2609 0 
L 959 3838 
L 959 853 
Q 959 541 975 469 
Q 1016 313 1152 214 
Q 1288 116 1578 116 
L 1578 0 
L 128 0 
L 128 116 
L 172 116 
Q 313 113 434 161 
Q 556 209 618 290 
Q 681 372 716 519 
Q 722 553 722 838 
L 722 3519 
Q 722 3841 687 3920 
Q 653 4000 547 4061 
Q 441 4122 263 4122 
L 128 4122 
L 128 4238 
L 1859 4238 
L 3050 1444 
z
" transform="scale(0.015625)"/>
        <path id="TimesNewRomanPS-BoldMT-53" d="M 3006 4334 
L 3041 2922 
L 2913 2922 
Q 2822 3453 2467 3776 
Q 2113 4100 1700 4100 
Q 1381 4100 1195 3929 
Q 1009 3759 1009 3538 
Q 1009 3397 1075 3288 
Q 1166 3141 1366 2997 
Q 1513 2894 2044 2631 
Q 2788 2266 3047 1941 
Q 3303 1616 3303 1197 
Q 3303 666 2889 283 
Q 2475 -100 1838 -100 
Q 1638 -100 1459 -59 
Q 1281 -19 1013 94 
Q 863 156 766 156 
Q 684 156 593 93 
Q 503 31 447 -97 
L 331 -97 
L 331 1503 
L 447 1503 
Q 584 828 976 473 
Q 1369 119 1822 119 
Q 2172 119 2380 309 
Q 2588 500 2588 753 
Q 2588 903 2508 1043 
Q 2428 1184 2265 1311 
Q 2103 1438 1691 1641 
Q 1113 1925 859 2125 
Q 606 2325 470 2572 
Q 334 2819 334 3116 
Q 334 3622 706 3978 
Q 1078 4334 1644 4334 
Q 1850 4334 2044 4284 
Q 2191 4247 2402 4145 
Q 2613 4044 2697 4044 
Q 2778 4044 2825 4094 
Q 2872 4144 2913 4334 
L 3006 4334 
z
" transform="scale(0.015625)"/>
        <path id="TimesNewRomanPS-BoldMT-45" d="M 1744 3994 
L 1744 2269 
L 1828 2269 
Q 2231 2269 2412 2522 
Q 2594 2775 2644 3269 
L 2763 3269 
L 2763 1050 
L 2644 1050 
Q 2606 1413 2486 1644 
Q 2366 1875 2206 1954 
Q 2047 2034 1744 2034 
L 1744 841 
Q 1744 491 1773 412 
Q 1803 334 1884 284 
Q 1966 234 2147 234 
L 2400 234 
Q 2994 234 3351 509 
Q 3709 784 3866 1347 
L 3981 1347 
L 3791 0 
L 128 0 
L 128 116 
L 269 116 
Q 453 116 566 181 
Q 647 225 691 331 
Q 725 406 725 725 
L 725 3513 
Q 725 3800 709 3866 
Q 678 3975 594 4034 
Q 475 4122 269 4122 
L 128 4122 
L 128 4238 
L 3675 4238 
L 3675 2984 
L 3556 2984 
Q 3466 3444 3302 3644 
Q 3138 3844 2838 3938 
Q 2663 3994 2181 3994 
L 1744 3994 
z
" transform="scale(0.015625)"/>
       </defs>
       <use xlink:href="#TimesNewRomanPS-BoldMT-52"/>
       <use xlink:href="#TimesNewRomanPS-BoldMT-4d" x="72.216797"/>
       <use xlink:href="#TimesNewRomanPS-BoldMT-53" x="166.601562"/>
       <use xlink:href="#TimesNewRomanPS-BoldMT-45" x="222.216797"/>
      </g>
     </g>
    </g>
    <g id="xtick_2">
     <g id="line2d_2">
      <g>
       <use xlink:href="#m5e94de9994" x="231.35933" y="404.84" style="stroke: #000000; stroke-width: 0.8"/>
      </g>
     </g>
     <g id="text_2">
      <!-- MAE -->
      <g transform="translate(219.693705 418.461875) scale(0.1 -0.1)">
       <defs>
        <path id="TimesNewRomanPS-BoldMT-41" d="M 2663 1206 
L 1166 1206 
L 988 794 
Q 900 588 900 453 
Q 900 275 1044 191 
Q 1128 141 1459 116 
L 1459 0 
L 50 0 
L 50 116 
Q 278 150 425 304 
Q 572 459 788 944 
L 2303 4325 
L 2363 4325 
L 3891 850 
Q 4109 356 4250 228 
Q 4356 131 4550 116 
L 4550 0 
L 2500 0 
L 2500 116 
L 2584 116 
Q 2831 116 2931 184 
Q 3000 234 3000 328 
Q 3000 384 2981 444 
Q 2975 472 2888 678 
L 2663 1206 
z
M 2556 1438 
L 1925 2897 
L 1275 1438 
L 2556 1438 
z
" transform="scale(0.015625)"/>
       </defs>
       <use xlink:href="#TimesNewRomanPS-BoldMT-4d"/>
       <use xlink:href="#TimesNewRomanPS-BoldMT-41" x="94.384766"/>
       <use xlink:href="#TimesNewRomanPS-BoldMT-45" x="166.601562"/>
      </g>
     </g>
    </g>
    <g id="xtick_3">
     <g id="line2d_3">
      <g>
       <use xlink:href="#m5e94de9994" x="348.44067" y="404.84" style="stroke: #000000; stroke-width: 0.8"/>
      </g>
     </g>
     <g id="text_3">
      <!-- R -->
      <g transform="translate(344.829732 418.461875) scale(0.1 -0.1)">
       <use xlink:href="#TimesNewRomanPS-BoldMT-52"/>
      </g>
     </g>
    </g>
    <g id="xtick_4">
     <g id="line2d_4">
      <g>
       <use xlink:href="#m5e94de9994" x="465.52201" y="404.84" style="stroke: #000000; stroke-width: 0.8"/>
      </g>
     </g>
     <g id="text_4">
      <!-- SD -->
      <g transform="translate(459.130603 418.461875) scale(0.1 -0.1)">
       <defs>
        <path id="TimesNewRomanPS-BoldMT-44" d="M 84 0 
L 84 116 
L 225 116 
Q 409 116 507 173 
Q 606 231 653 331 
Q 681 397 681 725 
L 681 3513 
Q 681 3838 647 3919 
Q 613 4000 508 4061 
Q 403 4122 225 4122 
L 84 4122 
L 84 4238 
L 1981 4238 
Q 2741 4238 3203 4031 
Q 3769 3778 4061 3265 
Q 4353 2753 4353 2106 
Q 4353 1659 4209 1282 
Q 4066 906 3837 661 
Q 3609 416 3311 267 
Q 3013 119 2581 38 
Q 2391 0 1981 0 
L 84 0 
z
M 1700 3997 
L 1700 691 
Q 1700 428 1725 368 
Q 1750 309 1809 278 
Q 1894 231 2053 231 
Q 2575 231 2850 588 
Q 3225 1069 3225 2081 
Q 3225 2897 2969 3384 
Q 2766 3766 2447 3903 
Q 2222 4000 1700 3997 
z
" transform="scale(0.015625)"/>
       </defs>
       <use xlink:href="#TimesNewRomanPS-BoldMT-53"/>
       <use xlink:href="#TimesNewRomanPS-BoldMT-44" x="55.615234"/>
      </g>
     </g>
    </g>
   </g>
   <g id="matplotlib.axis_2">
    <g id="ytick_1">
     <g id="line2d_5">
      <defs>
       <path id="m45bc7a8d4e" d="M 0 0 
L -3.5 0 
" style="stroke: #000000; stroke-width: 0.8"/>
      </defs>
      <g>
       <use xlink:href="#m45bc7a8d4e" x="45.2" y="404.84" style="stroke: #000000; stroke-width: 0.8"/>
      </g>
     </g>
     <g id="text_5">
      <!-- 0.0 -->
      <g transform="translate(25.7 408.311875) scale(0.1 -0.1)">
       <defs>
        <path id="TimesNewRomanPSMT-30" d="M 231 2094 
Q 231 2819 450 3342 
Q 669 3866 1031 4122 
Q 1313 4325 1613 4325 
Q 2100 4325 2488 3828 
Q 2972 3213 2972 2159 
Q 2972 1422 2759 906 
Q 2547 391 2217 158 
Q 1888 -75 1581 -75 
Q 975 -75 572 641 
Q 231 1244 231 2094 
z
M 844 2016 
Q 844 1141 1059 588 
Q 1238 122 1591 122 
Q 1759 122 1940 273 
Q 2122 425 2216 781 
Q 2359 1319 2359 2297 
Q 2359 3022 2209 3506 
Q 2097 3866 1919 4016 
Q 1791 4119 1609 4119 
Q 1397 4119 1231 3928 
Q 1006 3669 925 3112 
Q 844 2556 844 2016 
z
" transform="scale(0.015625)"/>
        <path id="TimesNewRomanPSMT-2e" d="M 800 606 
Q 947 606 1047 504 
Q 1147 403 1147 259 
Q 1147 116 1045 14 
Q 944 -88 800 -88 
Q 656 -88 554 14 
Q 453 116 453 259 
Q 453 406 554 506 
Q 656 606 800 606 
z
" transform="scale(0.015625)"/>
       </defs>
       <use xlink:href="#TimesNewRomanPSMT-30"/>
       <use xlink:href="#TimesNewRomanPSMT-2e" x="50"/>
       <use xlink:href="#TimesNewRomanPSMT-30" x="75"/>
      </g>
     </g>
    </g>
    <g id="ytick_2">
     <g id="line2d_6">
      <g>
       <use xlink:href="#m45bc7a8d4e" x="45.2" y="358.573468" style="stroke: #000000; stroke-width: 0.8"/>
      </g>
     </g>
     <g id="text_6">
      <!-- 0.2 -->
      <g transform="translate(25.7 362.045343) scale(0.1 -0.1)">
       <defs>
        <path id="TimesNewRomanPSMT-32" d="M 2934 816 
L 2638 0 
L 138 0 
L 138 116 
Q 1241 1122 1691 1759 
Q 2141 2397 2141 2925 
Q 2141 3328 1894 3587 
Q 1647 3847 1303 3847 
Q 991 3847 742 3664 
Q 494 3481 375 3128 
L 259 3128 
Q 338 3706 661 4015 
Q 984 4325 1469 4325 
Q 1984 4325 2329 3994 
Q 2675 3663 2675 3213 
Q 2675 2891 2525 2569 
Q 2294 2063 1775 1497 
Q 997 647 803 472 
L 1909 472 
Q 2247 472 2383 497 
Q 2519 522 2628 598 
Q 2738 675 2819 816 
L 2934 816 
z
" transform="scale(0.015625)"/>
       </defs>
       <use xlink:href="#TimesNewRomanPSMT-30"/>
       <use xlink:href="#TimesNewRomanPSMT-2e" x="50"/>
       <use xlink:href="#TimesNewRomanPSMT-32" x="75"/>
      </g>
     </g>
    </g>
    <g id="ytick_3">
     <g id="line2d_7">
      <g>
       <use xlink:href="#m45bc7a8d4e" x="45.2" y="312.306935" style="stroke: #000000; stroke-width: 0.8"/>
      </g>
     </g>
     <g id="text_7">
      <!-- 0.4 -->
      <g transform="translate(25.7 315.77881) scale(0.1 -0.1)">
       <defs>
        <path id="TimesNewRomanPSMT-34" d="M 2978 1563 
L 2978 1119 
L 2409 1119 
L 2409 0 
L 1894 0 
L 1894 1119 
L 100 1119 
L 100 1519 
L 2066 4325 
L 2409 4325 
L 2409 1563 
L 2978 1563 
z
M 1894 1563 
L 1894 3666 
L 406 1563 
L 1894 1563 
z
" transform="scale(0.015625)"/>
       </defs>
       <use xlink:href="#TimesNewRomanPSMT-30"/>
       <use xlink:href="#TimesNewRomanPSMT-2e" x="50"/>
       <use xlink:href="#TimesNewRomanPSMT-34" x="75"/>
      </g>
     </g>
    </g>
    <g id="ytick_4">
     <g id="line2d_8">
      <g>
       <use xlink:href="#m45bc7a8d4e" x="45.2" y="266.040403" style="stroke: #000000; stroke-width: 0.8"/>
      </g>
     </g>
     <g id="text_8">
      <!-- 0.6 -->
      <g transform="translate(25.7 269.512278) scale(0.1 -0.1)">
       <defs>
        <path id="TimesNewRomanPSMT-36" d="M 2869 4325 
L 2869 4209 
Q 2456 4169 2195 4045 
Q 1934 3922 1679 3669 
Q 1425 3416 1258 3105 
Q 1091 2794 978 2366 
Q 1428 2675 1881 2675 
Q 2316 2675 2634 2325 
Q 2953 1975 2953 1425 
Q 2953 894 2631 456 
Q 2244 -75 1606 -75 
Q 1172 -75 869 213 
Q 275 772 275 1663 
Q 275 2231 503 2743 
Q 731 3256 1154 3653 
Q 1578 4050 1965 4187 
Q 2353 4325 2688 4325 
L 2869 4325 
z
M 925 2138 
Q 869 1716 869 1456 
Q 869 1156 980 804 
Q 1091 453 1309 247 
Q 1469 100 1697 100 
Q 1969 100 2183 356 
Q 2397 613 2397 1088 
Q 2397 1622 2184 2012 
Q 1972 2403 1581 2403 
Q 1463 2403 1327 2353 
Q 1191 2303 925 2138 
z
" transform="scale(0.015625)"/>
       </defs>
       <use xlink:href="#TimesNewRomanPSMT-30"/>
       <use xlink:href="#TimesNewRomanPSMT-2e" x="50"/>
       <use xlink:href="#TimesNewRomanPSMT-36" x="75"/>
      </g>
     </g>
    </g>
    <g id="ytick_5">
     <g id="line2d_9">
      <g>
       <use xlink:href="#m45bc7a8d4e" x="45.2" y="219.773871" style="stroke: #000000; stroke-width: 0.8"/>
      </g>
     </g>
     <g id="text_9">
      <!-- 0.8 -->
      <g transform="translate(25.7 223.245746) scale(0.1 -0.1)">
       <defs>
        <path id="TimesNewRomanPSMT-38" d="M 1228 2134 
Q 725 2547 579 2797 
Q 434 3047 434 3316 
Q 434 3728 753 4026 
Q 1072 4325 1600 4325 
Q 2113 4325 2425 4047 
Q 2738 3769 2738 3413 
Q 2738 3175 2569 2928 
Q 2400 2681 1866 2347 
Q 2416 1922 2594 1678 
Q 2831 1359 2831 1006 
Q 2831 559 2490 242 
Q 2150 -75 1597 -75 
Q 994 -75 656 303 
Q 388 606 388 966 
Q 388 1247 577 1523 
Q 766 1800 1228 2134 
z
M 1719 2469 
Q 2094 2806 2194 3001 
Q 2294 3197 2294 3444 
Q 2294 3772 2109 3958 
Q 1925 4144 1606 4144 
Q 1288 4144 1088 3959 
Q 888 3775 888 3528 
Q 888 3366 970 3203 
Q 1053 3041 1206 2894 
L 1719 2469 
z
M 1375 2016 
Q 1116 1797 991 1539 
Q 866 1281 866 981 
Q 866 578 1086 336 
Q 1306 94 1647 94 
Q 1984 94 2187 284 
Q 2391 475 2391 747 
Q 2391 972 2272 1150 
Q 2050 1481 1375 2016 
z
" transform="scale(0.015625)"/>
       </defs>
       <use xlink:href="#TimesNewRomanPSMT-30"/>
       <use xlink:href="#TimesNewRomanPSMT-2e" x="50"/>
       <use xlink:href="#TimesNewRomanPSMT-38" x="75"/>
      </g>
     </g>
    </g>
    <g id="ytick_6">
     <g id="line2d_10">
      <g>
       <use xlink:href="#m45bc7a8d4e" x="45.2" y="173.507339" style="stroke: #000000; stroke-width: 0.8"/>
      </g>
     </g>
     <g id="text_10">
      <!-- 1.0 -->
      <g transform="translate(25.7 176.979214) scale(0.1 -0.1)">
       <defs>
        <path id="TimesNewRomanPSMT-31" d="M 750 3822 
L 1781 4325 
L 1884 4325 
L 1884 747 
Q 1884 391 1914 303 
Q 1944 216 2037 169 
Q 2131 122 2419 116 
L 2419 0 
L 825 0 
L 825 116 
Q 1125 122 1212 167 
Q 1300 213 1334 289 
Q 1369 366 1369 747 
L 1369 3034 
Q 1369 3497 1338 3628 
Q 1316 3728 1258 3775 
Q 1200 3822 1119 3822 
Q 1003 3822 797 3725 
L 750 3822 
z
" transform="scale(0.015625)"/>
       </defs>
       <use xlink:href="#TimesNewRomanPSMT-31"/>
       <use xlink:href="#TimesNewRomanPSMT-2e" x="50"/>
       <use xlink:href="#TimesNewRomanPSMT-30" x="75"/>
      </g>
     </g>
    </g>
    <g id="ytick_7">
     <g id="line2d_11">
      <g>
       <use xlink:href="#m45bc7a8d4e" x="45.2" y="127.240806" style="stroke: #000000; stroke-width: 0.8"/>
      </g>
     </g>
     <g id="text_11">
      <!-- 1.2 -->
      <g transform="translate(25.7 130.712681) scale(0.1 -0.1)">
       <use xlink:href="#TimesNewRomanPSMT-31"/>
       <use xlink:href="#TimesNewRomanPSMT-2e" x="50"/>
       <use xlink:href="#TimesNewRomanPSMT-32" x="75"/>
      </g>
     </g>
    </g>
    <g id="ytick_8">
     <g id="line2d_12">
      <g>
       <use xlink:href="#m45bc7a8d4e" x="45.2" y="80.974274" style="stroke: #000000; stroke-width: 0.8"/>
      </g>
     </g>
     <g id="text_12">
      <!-- 1.4 -->
      <g transform="translate(25.7 84.446149) scale(0.1 -0.1)">
       <use xlink:href="#TimesNewRomanPSMT-31"/>
       <use xlink:href="#TimesNewRomanPSMT-2e" x="50"/>
       <use xlink:href="#TimesNewRomanPSMT-34" x="75"/>
      </g>
     </g>
    </g>
    <g id="ytick_9">
     <g id="line2d_13">
      <g>
       <use xlink:href="#m45bc7a8d4e" x="45.2" y="34.707742" style="stroke: #000000; stroke-width: 0.8"/>
      </g>
     </g>
     <g id="text_13">
      <!-- 1.6 -->
      <g transform="translate(25.7 38.179617) scale(0.1 -0.1)">
       <use xlink:href="#TimesNewRomanPSMT-31"/>
       <use xlink:href="#TimesNewRomanPSMT-2e" x="50"/>
       <use xlink:href="#TimesNewRomanPSMT-36" x="75"/>
      </g>
     </g>
    </g>
    <g id="text_14">
     <!-- Value -->
     <g transform="translate(19.133125 229.9525) rotate(-90) scale(0.12 -0.12)">
      <defs>
       <path id="TimesNewRomanPS-BoldMT-56" d="M 4556 4238 
L 4556 4122 
Q 4325 4084 4144 3875 
Q 4013 3719 3753 3141 
L 2294 -97 
L 2191 -97 
L 738 3272 
Q 475 3881 386 3987 
Q 297 4094 50 4122 
L 50 4238 
L 2081 4238 
L 2081 4122 
L 2013 4122 
Q 1738 4122 1638 4053 
Q 1566 4006 1566 3916 
Q 1566 3859 1591 3782 
Q 1616 3706 1759 3372 
L 2663 1263 
L 3500 3141 
Q 3650 3481 3684 3597 
Q 3719 3713 3719 3794 
Q 3719 3888 3669 3959 
Q 3619 4031 3522 4069 
Q 3388 4122 3166 4122 
L 3166 4238 
L 4556 4238 
z
" transform="scale(0.015625)"/>
       <path id="TimesNewRomanPS-BoldMT-61" d="M 1828 431 
Q 1294 -41 869 -41 
Q 619 -41 453 123 
Q 288 288 288 534 
Q 288 869 575 1136 
Q 863 1403 1828 1847 
L 1828 2141 
Q 1828 2472 1792 2558 
Q 1756 2644 1656 2708 
Q 1556 2772 1431 2772 
Q 1228 2772 1097 2681 
Q 1016 2625 1016 2550 
Q 1016 2484 1103 2388 
Q 1222 2253 1222 2128 
Q 1222 1975 1108 1867 
Q 994 1759 809 1759 
Q 613 1759 480 1878 
Q 347 1997 347 2156 
Q 347 2381 525 2586 
Q 703 2791 1022 2900 
Q 1341 3009 1684 3009 
Q 2100 3009 2342 2832 
Q 2584 2656 2656 2450 
Q 2700 2319 2700 1847 
L 2700 713 
Q 2700 513 2715 461 
Q 2731 409 2762 384 
Q 2794 359 2834 359 
Q 2916 359 3000 475 
L 3094 400 
Q 2938 169 2770 64 
Q 2603 -41 2391 -41 
Q 2141 -41 2000 76 
Q 1859 194 1828 431 
z
M 1828 659 
L 1828 1638 
Q 1450 1416 1266 1163 
Q 1144 994 1144 822 
Q 1144 678 1247 569 
Q 1325 484 1466 484 
Q 1622 484 1828 659 
z
" transform="scale(0.015625)"/>
       <path id="TimesNewRomanPS-BoldMT-6c" d="M 1359 4238 
L 1359 606 
Q 1359 297 1431 211 
Q 1503 125 1713 113 
L 1713 0 
L 134 0 
L 134 113 
Q 328 119 422 225 
Q 484 297 484 606 
L 484 3631 
Q 484 3938 412 4023 
Q 341 4109 134 4122 
L 134 4238 
L 1359 4238 
z
" transform="scale(0.015625)"/>
       <path id="TimesNewRomanPS-BoldMT-75" d="M 3038 2922 
L 3038 634 
Q 3038 300 3100 217 
Q 3163 134 3353 113 
L 3353 0 
L 2163 0 
L 2163 391 
Q 1953 141 1743 26 
Q 1534 -88 1275 -88 
Q 1028 -88 836 64 
Q 644 216 578 419 
Q 513 622 513 1128 
L 513 2288 
Q 513 2619 452 2700 
Q 391 2781 197 2806 
L 197 2922 
L 1388 2922 
L 1388 925 
Q 1388 613 1417 522 
Q 1447 431 1511 384 
Q 1575 338 1659 338 
Q 1772 338 1863 397 
Q 1988 478 2163 725 
L 2163 2288 
Q 2163 2619 2102 2700 
Q 2041 2781 1847 2806 
L 1847 2922 
L 3038 2922 
z
" transform="scale(0.015625)"/>
       <path id="TimesNewRomanPS-BoldMT-65" d="M 2691 1566 
L 1088 1566 
Q 1116 984 1397 647 
Q 1613 388 1916 388 
Q 2103 388 2256 492 
Q 2409 597 2584 869 
L 2691 800 
Q 2453 316 2165 114 
Q 1878 -88 1500 -88 
Q 850 -88 516 413 
Q 247 816 247 1413 
Q 247 2144 642 2576 
Q 1038 3009 1569 3009 
Q 2013 3009 2339 2645 
Q 2666 2281 2691 1566 
z
M 1922 1775 
Q 1922 2278 1867 2465 
Q 1813 2653 1697 2750 
Q 1631 2806 1522 2806 
Q 1359 2806 1256 2647 
Q 1072 2369 1072 1884 
L 1072 1775 
L 1922 1775 
z
" transform="scale(0.015625)"/>
      </defs>
      <use xlink:href="#TimesNewRomanPS-BoldMT-56"/>
      <use xlink:href="#TimesNewRomanPS-BoldMT-61" x="63.091797"/>
      <use xlink:href="#TimesNewRomanPS-BoldMT-6c" x="113.091797"/>
      <use xlink:href="#TimesNewRomanPS-BoldMT-75" x="140.875"/>
      <use xlink:href="#TimesNewRomanPS-BoldMT-65" x="196.490234"/>
     </g>
    </g>
   </g>
   <g id="patch_23">
    <path d="M 45.2 404.84 
L 45.2 26.16 
" style="fill: none; stroke: #000000; stroke-width: 0.8; stroke-linejoin: miter; stroke-linecap: square"/>
   </g>
   <g id="patch_24">
    <path d="M 534.6 404.84 
L 534.6 26.16 
" style="fill: none; stroke: #000000; stroke-width: 0.8; stroke-linejoin: miter; stroke-linecap: square"/>
   </g>
   <g id="patch_25">
    <path d="M 45.2 404.84 
L 534.6 404.84 
" style="fill: none; stroke: #000000; stroke-width: 0.8; stroke-linejoin: miter; stroke-linecap: square"/>
   </g>
   <g id="patch_26">
    <path d="M 45.2 26.16 
L 534.6 26.16 
" style="fill: none; stroke: #000000; stroke-width: 0.8; stroke-linejoin: miter; stroke-linecap: square"/>
   </g>
   <g id="text_15">
    <!-- CASF2013 -->
    <g transform="translate(257.62125 20.16) scale(0.14 -0.14)">
     <defs>
      <path id="TimesNewRomanPS-BoldMT-43" d="M 4272 4334 
L 4272 2866 
L 4150 2866 
Q 4013 3441 3638 3747 
Q 3263 4053 2788 4053 
Q 2391 4053 2059 3825 
Q 1728 3597 1575 3228 
Q 1378 2756 1378 2178 
Q 1378 1609 1522 1142 
Q 1666 675 1972 436 
Q 2278 197 2766 197 
Q 3166 197 3498 372 
Q 3831 547 4200 975 
L 4200 609 
Q 3844 238 3458 70 
Q 3072 -97 2556 -97 
Q 1878 -97 1351 175 
Q 825 447 539 956 
Q 253 1466 253 2041 
Q 253 2647 570 3190 
Q 888 3734 1427 4034 
Q 1966 4334 2572 4334 
Q 3019 4334 3516 4141 
Q 3803 4028 3881 4028 
Q 3981 4028 4054 4101 
Q 4128 4175 4150 4334 
L 4272 4334 
z
" transform="scale(0.015625)"/>
      <path id="TimesNewRomanPS-BoldMT-46" d="M 1759 3994 
L 1759 2253 
L 1881 2253 
Q 2163 2253 2341 2337 
Q 2519 2422 2642 2622 
Q 2766 2822 2803 3163 
L 2913 3163 
L 2913 1034 
L 2803 1034 
Q 2744 1638 2480 1830 
Q 2216 2022 1881 2022 
L 1759 2022 
L 1759 725 
Q 1759 400 1795 319 
Q 1831 238 1936 177 
Q 2041 116 2219 116 
L 2359 116 
L 2359 0 
L 144 0 
L 144 116 
L 284 116 
Q 469 116 581 181 
Q 663 225 706 331 
Q 741 406 741 725 
L 741 3513 
Q 741 3838 706 3919 
Q 672 4000 567 4061 
Q 463 4122 284 4122 
L 144 4122 
L 144 4238 
L 3719 4238 
L 3719 3022 
L 3591 3022 
Q 3547 3450 3367 3656 
Q 3188 3863 2847 3947 
Q 2659 3994 2153 3994 
L 1759 3994 
z
" transform="scale(0.015625)"/>
      <path id="TimesNewRomanPS-BoldMT-32" d="M 2650 0 
L 156 0 
L 156 69 
Q 1303 1434 1548 1906 
Q 1794 2378 1794 2828 
Q 1794 3156 1591 3373 
Q 1388 3591 1094 3591 
Q 613 3591 347 3109 
L 231 3150 
Q 400 3750 744 4037 
Q 1088 4325 1538 4325 
Q 1859 4325 2125 4175 
Q 2391 4025 2541 3764 
Q 2691 3503 2691 3275 
Q 2691 2859 2459 2431 
Q 2144 1853 1081 819 
L 1997 819 
Q 2334 819 2436 847 
Q 2538 875 2603 942 
Q 2669 1009 2775 1225 
L 2888 1225 
L 2650 0 
z
" transform="scale(0.015625)"/>
      <path id="TimesNewRomanPS-BoldMT-30" d="M 2966 2119 
Q 2966 1484 2788 934 
Q 2681 597 2501 381 
Q 2322 166 2094 39 
Q 1866 -88 1597 -88 
Q 1291 -88 1044 68 
Q 797 225 606 516 
Q 469 728 366 1081 
Q 231 1559 231 2069 
Q 231 2759 425 3338 
Q 584 3816 909 4070 
Q 1234 4325 1597 4325 
Q 1966 4325 2286 4073 
Q 2606 3822 2756 3397 
Q 2966 2813 2966 2119 
z
M 2003 2125 
Q 2003 3238 1991 3422 
Q 1959 3856 1841 4009 
Q 1763 4109 1588 4109 
Q 1453 4109 1375 4034 
Q 1259 3925 1218 3648 
Q 1178 3372 1178 1719 
Q 1178 819 1241 513 
Q 1288 291 1375 216 
Q 1463 141 1606 141 
Q 1763 141 1841 241 
Q 1972 416 1991 781 
L 2003 2125 
z
" transform="scale(0.015625)"/>
      <path id="TimesNewRomanPS-BoldMT-31" d="M 2084 4325 
L 2084 859 
Q 2084 469 2118 361 
Q 2153 253 2262 184 
Q 2372 116 2613 116 
L 2709 116 
L 2709 0 
L 478 0 
L 478 116 
L 591 116 
Q 863 116 978 178 
Q 1094 241 1134 350 
Q 1175 459 1175 859 
L 1175 3056 
Q 1175 3350 1147 3423 
Q 1119 3497 1042 3548 
Q 966 3600 866 3600 
Q 706 3600 478 3500 
L 422 3613 
L 1981 4325 
L 2084 4325 
z
" transform="scale(0.015625)"/>
      <path id="TimesNewRomanPS-BoldMT-33" d="M 947 2125 
L 947 2234 
Q 1303 2338 1440 2427 
Q 1578 2516 1678 2698 
Q 1778 2881 1778 3069 
Q 1778 3328 1589 3514 
Q 1400 3700 1119 3700 
Q 681 3700 375 3238 
L 259 3278 
Q 484 3800 836 4062 
Q 1188 4325 1619 4325 
Q 2059 4325 2345 4056 
Q 2631 3788 2631 3428 
Q 2631 3194 2498 2976 
Q 2366 2759 2081 2594 
Q 2447 2416 2639 2155 
Q 2831 1894 2831 1500 
Q 2831 838 2351 373 
Q 1872 -91 1066 -91 
Q 528 -91 281 88 
Q 103 213 103 409 
Q 103 553 206 654 
Q 309 756 444 756 
Q 547 756 638 713 
Q 688 688 992 439 
Q 1297 191 1563 191 
Q 1794 191 1959 373 
Q 2125 556 2125 838 
Q 2125 1266 1825 1627 
Q 1525 1988 947 2125 
z
" transform="scale(0.015625)"/>
     </defs>
     <use xlink:href="#TimesNewRomanPS-BoldMT-43"/>
     <use xlink:href="#TimesNewRomanPS-BoldMT-41" x="72.216797"/>
     <use xlink:href="#TimesNewRomanPS-BoldMT-53" x="144.433594"/>
     <use xlink:href="#TimesNewRomanPS-BoldMT-46" x="200.048828"/>
     <use xlink:href="#TimesNewRomanPS-BoldMT-32" x="261.132812"/>
     <use xlink:href="#TimesNewRomanPS-BoldMT-30" x="311.132812"/>
     <use xlink:href="#TimesNewRomanPS-BoldMT-31" x="361.132812"/>
     <use xlink:href="#TimesNewRomanPS-BoldMT-33" x="411.132812"/>
    </g>
   </g>
   <g id="legend_1">
    <g id="patch_27">
     <path d="M 249.876563 104.855312 
L 329.923438 104.855312 
Q 331.923438 104.855312 331.923438 102.855312 
L 331.923438 33.16 
Q 331.923438 31.16 329.923438 31.16 
L 249.876563 31.16 
Q 247.876563 31.16 247.876563 33.16 
L 247.876563 102.855312 
Q 247.876563 104.855312 249.876563 104.855312 
z
" style="fill: #ffffff; opacity: 0.8; stroke: #cccccc; stroke-linejoin: miter"/>
    </g>
    <g id="patch_28">
     <path d="M 251.876563 42.16 
L 271.876563 42.16 
L 271.876563 35.16 
L 251.876563 35.16 
z
" style="fill: #4575b4"/>
    </g>
    <g id="text_16">
     <!-- w/o CGMP -->
     <g transform="translate(279.876563 42.16) scale(0.1 -0.1)">
      <defs>
       <path id="TimesNewRomanPS-BoldMT-77" d="M 3113 -88 
L 2313 2056 
L 1528 -88 
L 1366 -88 
L 588 2031 
Q 413 2516 291 2663 
Q 213 2763 53 2806 
L 53 2922 
L 1528 2922 
L 1528 2806 
Q 1378 2806 1322 2762 
Q 1266 2719 1266 2663 
Q 1266 2609 1366 2344 
L 1794 1203 
L 2206 2344 
L 2175 2419 
Q 2081 2653 2011 2717 
Q 1941 2781 1794 2806 
L 1794 2922 
L 3291 2922 
L 3291 2806 
Q 3116 2797 3069 2758 
Q 3022 2719 3022 2647 
Q 3022 2578 3113 2344 
L 3525 1203 
L 3900 2253 
Q 3981 2478 3981 2559 
Q 3981 2681 3922 2737 
Q 3863 2794 3691 2806 
L 3691 2922 
L 4556 2922 
L 4556 2806 
Q 4413 2788 4328 2705 
Q 4244 2622 4109 2234 
L 3291 -88 
L 3113 -88 
z
" transform="scale(0.015625)"/>
       <path id="TimesNewRomanPS-BoldMT-2f" d="M 1797 4334 
L 406 -97 
L 6 -97 
L 1403 4334 
L 1797 4334 
z
" transform="scale(0.015625)"/>
       <path id="TimesNewRomanPS-BoldMT-6f" d="M 1594 3009 
Q 1975 3009 2303 2812 
Q 2631 2616 2801 2253 
Q 2972 1891 2972 1459 
Q 2972 838 2656 419 
Q 2275 -88 1603 -88 
Q 944 -88 587 375 
Q 231 838 231 1447 
Q 231 2075 595 2542 
Q 959 3009 1594 3009 
z
M 1606 2788 
Q 1447 2788 1333 2667 
Q 1219 2547 1183 2192 
Q 1147 1838 1147 1206 
Q 1147 872 1191 581 
Q 1225 359 1337 243 
Q 1450 128 1594 128 
Q 1734 128 1828 206 
Q 1950 313 1991 503 
Q 2053 800 2053 1703 
Q 2053 2234 1993 2432 
Q 1934 2631 1819 2722 
Q 1738 2788 1606 2788 
z
" transform="scale(0.015625)"/>
       <path id="TimesNewRomanPS-BoldMT-20" transform="scale(0.015625)"/>
       <path id="TimesNewRomanPS-BoldMT-47" d="M 4416 4334 
L 4416 2841 
L 4300 2841 
Q 4091 3453 3672 3772 
Q 3253 4091 2756 4091 
Q 2281 4091 1965 3823 
Q 1650 3556 1519 3078 
Q 1388 2600 1388 2097 
Q 1388 1488 1531 1028 
Q 1675 569 1995 353 
Q 2316 138 2756 138 
Q 2909 138 3070 170 
Q 3231 203 3400 266 
L 3400 1147 
Q 3400 1397 3365 1470 
Q 3331 1544 3223 1603 
Q 3116 1663 2963 1663 
L 2853 1663 
L 2853 1778 
L 4913 1778 
L 4913 1663 
Q 4678 1647 4586 1598 
Q 4494 1550 4444 1438 
Q 4416 1378 4416 1147 
L 4416 266 
Q 4009 84 3570 -8 
Q 3131 -100 2659 -100 
Q 2056 -100 1657 64 
Q 1259 228 954 495 
Q 650 763 478 1097 
Q 259 1528 259 2063 
Q 259 3019 931 3678 
Q 1603 4338 2622 4338 
Q 2938 4338 3191 4288 
Q 3328 4263 3636 4145 
Q 3944 4028 4000 4028 
Q 4088 4028 4163 4092 
Q 4238 4156 4300 4334 
L 4416 4334 
z
" transform="scale(0.015625)"/>
       <path id="TimesNewRomanPS-BoldMT-50" d="M 1728 1919 
L 1728 744 
Q 1728 400 1770 311 
Q 1813 222 1920 169 
Q 2028 116 2316 116 
L 2316 0 
L 163 0 
L 163 116 
Q 456 116 561 170 
Q 666 225 708 312 
Q 750 400 750 744 
L 750 3494 
Q 750 3838 708 3927 
Q 666 4016 559 4069 
Q 453 4122 163 4122 
L 163 4238 
L 2009 4238 
Q 2922 4238 3319 3913 
Q 3716 3588 3716 3100 
Q 3716 2688 3459 2394 
Q 3203 2100 2753 1994 
Q 2450 1919 1728 1919 
z
M 1728 3994 
L 1728 2163 
Q 1831 2156 1884 2156 
Q 2266 2156 2472 2382 
Q 2678 2609 2678 3084 
Q 2678 3556 2472 3775 
Q 2266 3994 1856 3994 
L 1728 3994 
z
" transform="scale(0.015625)"/>
      </defs>
      <use xlink:href="#TimesNewRomanPS-BoldMT-77"/>
      <use xlink:href="#TimesNewRomanPS-BoldMT-2f" x="72.216797"/>
      <use xlink:href="#TimesNewRomanPS-BoldMT-6f" x="100"/>
      <use xlink:href="#TimesNewRomanPS-BoldMT-20" x="150"/>
      <use xlink:href="#TimesNewRomanPS-BoldMT-43" x="175"/>
      <use xlink:href="#TimesNewRomanPS-BoldMT-47" x="247.216797"/>
      <use xlink:href="#TimesNewRomanPS-BoldMT-4d" x="325"/>
      <use xlink:href="#TimesNewRomanPS-BoldMT-50" x="419.384766"/>
     </g>
    </g>
    <g id="patch_29">
     <path d="M 251.876563 56.299062 
L 271.876563 56.299062 
L 271.876563 49.299062 
L 251.876563 49.299062 
z
" style="fill: #fdae61"/>
    </g>
    <g id="text_17">
     <!-- w/o IGMP -->
     <g transform="translate(279.876563 56.299062) scale(0.1 -0.1)">
      <defs>
       <path id="TimesNewRomanPS-BoldMT-49" d="M 2344 116 
L 2344 0 
L 128 0 
L 128 116 
L 269 116 
Q 453 116 566 181 
Q 647 225 691 331 
Q 725 406 725 725 
L 725 3513 
Q 725 3838 690 3919 
Q 656 4000 551 4061 
Q 447 4122 269 4122 
L 128 4122 
L 128 4238 
L 2344 4238 
L 2344 4122 
L 2203 4122 
Q 2019 4122 1906 4056 
Q 1825 4013 1778 3906 
Q 1744 3831 1744 3513 
L 1744 725 
Q 1744 400 1780 319 
Q 1816 238 1920 177 
Q 2025 116 2203 116 
L 2344 116 
z
" transform="scale(0.015625)"/>
      </defs>
      <use xlink:href="#TimesNewRomanPS-BoldMT-77"/>
      <use xlink:href="#TimesNewRomanPS-BoldMT-2f" x="72.216797"/>
      <use xlink:href="#TimesNewRomanPS-BoldMT-6f" x="100"/>
      <use xlink:href="#TimesNewRomanPS-BoldMT-20" x="150"/>
      <use xlink:href="#TimesNewRomanPS-BoldMT-49" x="175"/>
      <use xlink:href="#TimesNewRomanPS-BoldMT-47" x="213.916016"/>
      <use xlink:href="#TimesNewRomanPS-BoldMT-4d" x="291.699219"/>
      <use xlink:href="#TimesNewRomanPS-BoldMT-50" x="386.083984"/>
     </g>
    </g>
    <g id="patch_30">
     <path d="M 251.876563 70.438125 
L 271.876563 70.438125 
L 271.876563 63.438125 
L 251.876563 63.438125 
z
" style="fill: #66bd63"/>
    </g>
    <g id="text_18">
     <!-- w/o BAR -->
     <g transform="translate(279.876563 70.438125) scale(0.1 -0.1)">
      <defs>
       <path id="TimesNewRomanPS-BoldMT-42" d="M 2847 2247 
Q 3450 2106 3694 1906 
Q 4044 1622 4044 1169 
Q 4044 691 3659 378 
Q 3188 0 2288 0 
L 134 0 
L 134 116 
Q 428 116 533 170 
Q 638 225 680 312 
Q 722 400 722 744 
L 722 3494 
Q 722 3838 680 3927 
Q 638 4016 531 4069 
Q 425 4122 134 4122 
L 134 4238 
L 2166 4238 
Q 2894 4238 3197 4108 
Q 3500 3978 3675 3720 
Q 3850 3463 3850 3172 
Q 3850 2866 3628 2627 
Q 3406 2388 2847 2247 
z
M 1709 2331 
Q 2153 2331 2364 2431 
Q 2575 2531 2687 2712 
Q 2800 2894 2800 3175 
Q 2800 3456 2689 3636 
Q 2578 3816 2372 3909 
Q 2166 4003 1709 4000 
L 1709 2331 
z
M 1709 2088 
L 1709 728 
L 1706 572 
Q 1706 403 1792 317 
Q 1878 231 2047 231 
Q 2297 231 2508 342 
Q 2719 453 2831 664 
Q 2944 875 2944 1134 
Q 2944 1431 2806 1667 
Q 2669 1903 2428 1997 
Q 2188 2091 1709 2088 
z
" transform="scale(0.015625)"/>
      </defs>
      <use xlink:href="#TimesNewRomanPS-BoldMT-77"/>
      <use xlink:href="#TimesNewRomanPS-BoldMT-2f" x="72.216797"/>
      <use xlink:href="#TimesNewRomanPS-BoldMT-6f" x="100"/>
      <use xlink:href="#TimesNewRomanPS-BoldMT-20" x="150"/>
      <use xlink:href="#TimesNewRomanPS-BoldMT-42" x="175"/>
      <use xlink:href="#TimesNewRomanPS-BoldMT-41" x="241.699219"/>
      <use xlink:href="#TimesNewRomanPS-BoldMT-52" x="313.916016"/>
     </g>
    </g>
    <g id="patch_31">
     <path d="M 251.876563 84.577187 
L 271.876563 84.577187 
L 271.876563 77.577187 
L 251.876563 77.577187 
z
" style="fill: #d73027"/>
    </g>
    <g id="text_19">
     <!-- w/o ABR -->
     <g transform="translate(279.876563 84.577187) scale(0.1 -0.1)">
      <use xlink:href="#TimesNewRomanPS-BoldMT-77"/>
      <use xlink:href="#TimesNewRomanPS-BoldMT-2f" x="72.216797"/>
      <use xlink:href="#TimesNewRomanPS-BoldMT-6f" x="100"/>
      <use xlink:href="#TimesNewRomanPS-BoldMT-20" x="150"/>
      <use xlink:href="#TimesNewRomanPS-BoldMT-41" x="169.5"/>
      <use xlink:href="#TimesNewRomanPS-BoldMT-42" x="241.716797"/>
      <use xlink:href="#TimesNewRomanPS-BoldMT-52" x="308.416016"/>
     </g>
    </g>
    <g id="patch_32">
     <path d="M 251.876563 98.71625 
L 271.876563 98.71625 
L 271.876563 91.71625 
L 251.876563 91.71625 
z
" style="fill: #938ed5"/>
    </g>
    <g id="text_20">
     <!-- DCMP -->
     <g transform="translate(279.876563 98.71625) scale(0.1 -0.1)">
      <use xlink:href="#TimesNewRomanPS-BoldMT-44"/>
      <use xlink:href="#TimesNewRomanPS-BoldMT-43" x="72.216797"/>
      <use xlink:href="#TimesNewRomanPS-BoldMT-4d" x="144.433594"/>
      <use xlink:href="#TimesNewRomanPS-BoldMT-50" x="238.818359"/>
     </g>
    </g>
   </g>
  </g>
  <g id="axes_2">
   <g id="patch_33">
    <path d="M 579.8 404.84 
L 1069.2 404.84 
L 1069.2 26.16 
L 579.8 26.16 
z
" style="fill: #ffffff"/>
   </g>
   <g id="patch_34">
    <path d="M 602.045455 404.84 
L 620.778469 404.84 
L 620.778469 70.042558 
L 602.045455 70.042558 
z
" clip-path="url(#pa39c10e861)" style="fill: #4575b4"/>
   </g>
   <g id="patch_35">
    <path d="M 719.126794 404.84 
L 737.859809 404.84 
L 737.859809 150.604761 
L 719.126794 150.604761 
z
" clip-path="url(#pa39c10e861)" style="fill: #4575b4"/>
   </g>
   <g id="patch_36">
    <path d="M 836.208134 404.84 
L 854.941148 404.84 
L 854.941148 202.054143 
L 836.208134 202.054143 
z
" clip-path="url(#pa39c10e861)" style="fill: #4575b4"/>
   </g>
   <g id="patch_37">
    <path d="M 953.289474 404.84 
L 972.022488 404.84 
L 972.022488 70.042558 
L 953.289474 70.042558 
z
" clip-path="url(#pa39c10e861)" style="fill: #4575b4"/>
   </g>
   <g id="patch_38">
    <path d="M 620.778469 404.84 
L 639.511483 404.84 
L 639.511483 49.462805 
L 620.778469 49.462805 
z
" clip-path="url(#pa39c10e861)" style="fill: #fdae61"/>
   </g>
   <g id="patch_39">
    <path d="M 737.859809 404.84 
L 756.592823 404.84 
L 756.592823 140.063912 
L 737.859809 140.063912 
z
" clip-path="url(#pa39c10e861)" style="fill: #fdae61"/>
   </g>
   <g id="patch_40">
    <path d="M 854.941148 404.84 
L 873.674163 404.84 
L 873.674163 223.135841 
L 854.941148 223.135841 
z
" clip-path="url(#pa39c10e861)" style="fill: #fdae61"/>
   </g>
   <g id="patch_41">
    <path d="M 972.022488 404.84 
L 990.755502 404.84 
L 990.755502 49.462805 
L 972.022488 49.462805 
z
" clip-path="url(#pa39c10e861)" style="fill: #fdae61"/>
   </g>
   <g id="patch_42">
    <path d="M 639.511483 404.84 
L 658.244498 404.84 
L 658.244498 99.406352 
L 639.511483 99.406352 
z
" clip-path="url(#pa39c10e861)" style="fill: #66bd63"/>
   </g>
   <g id="patch_43">
    <path d="M 756.592823 404.84 
L 775.325837 404.84 
L 775.325837 171.184514 
L 756.592823 171.184514 
z
" clip-path="url(#pa39c10e861)" style="fill: #66bd63"/>
   </g>
   <g id="patch_44">
    <path d="M 873.674163 404.84 
L 892.407177 404.84 
L 892.407177 200.046362 
L 873.674163 200.046362 
z
" clip-path="url(#pa39c10e861)" style="fill: #66bd63"/>
   </g>
   <g id="patch_45">
    <path d="M 990.755502 404.84 
L 1009.488517 404.84 
L 1009.488517 99.406352 
L 990.755502 99.406352 
z
" clip-path="url(#pa39c10e861)" style="fill: #66bd63"/>
   </g>
   <g id="patch_46">
    <path d="M 658.244498 404.84 
L 676.977512 404.84 
L 676.977512 44.192381 
L 658.244498 44.192381 
z
" clip-path="url(#pa39c10e861)" style="fill: #d73027"/>
   </g>
   <g id="patch_47">
    <path d="M 775.325837 404.84 
L 794.058852 404.84 
L 794.058852 112.958872 
L 775.325837 112.958872 
z
" clip-path="url(#pa39c10e861)" style="fill: #d73027"/>
   </g>
   <g id="patch_48">
    <path d="M 892.407177 404.84 
L 911.140191 404.84 
L 911.140191 229.410156 
L 892.407177 229.410156 
z
" clip-path="url(#pa39c10e861)" style="fill: #d73027"/>
   </g>
   <g id="patch_49">
    <path d="M 1009.488517 404.84 
L 1028.221531 404.84 
L 1028.221531 44.192381 
L 1009.488517 44.192381 
z
" clip-path="url(#pa39c10e861)" style="fill: #d73027"/>
   </g>
   <g id="patch_50">
    <path d="M 676.977512 404.84 
L 695.710526 404.84 
L 695.710526 113.209845 
L 676.977512 113.209845 
z
" clip-path="url(#pa39c10e861)" style="fill: #938ed5"/>
   </g>
   <g id="patch_51">
    <path d="M 794.058852 404.84 
L 812.791866 404.84 
L 812.791866 177.709802 
L 794.058852 177.709802 
z
" clip-path="url(#pa39c10e861)" style="fill: #938ed5"/>
   </g>
   <g id="patch_52">
    <path d="M 911.140191 404.84 
L 929.873206 404.84 
L 929.873206 192.768157 
L 911.140191 192.768157 
z
" clip-path="url(#pa39c10e861)" style="fill: #938ed5"/>
   </g>
   <g id="patch_53">
    <path d="M 1028.221531 404.84 
L 1046.954545 404.84 
L 1046.954545 113.209845 
L 1028.221531 113.209845 
z
" clip-path="url(#pa39c10e861)" style="fill: #938ed5"/>
   </g>
   <g id="matplotlib.axis_3">
    <g id="xtick_5">
     <g id="line2d_14">
      <g>
       <use xlink:href="#m5e94de9994" x="648.87799" y="404.84" style="stroke: #000000; stroke-width: 0.8"/>
      </g>
     </g>
     <g id="text_21">
      <!-- RMSE -->
      <g transform="translate(634.431897 418.461875) scale(0.1 -0.1)">
       <use xlink:href="#TimesNewRomanPS-BoldMT-52"/>
       <use xlink:href="#TimesNewRomanPS-BoldMT-4d" x="72.216797"/>
       <use xlink:href="#TimesNewRomanPS-BoldMT-53" x="166.601562"/>
       <use xlink:href="#TimesNewRomanPS-BoldMT-45" x="222.216797"/>
      </g>
     </g>
    </g>
    <g id="xtick_6">
     <g id="line2d_15">
      <g>
       <use xlink:href="#m5e94de9994" x="765.95933" y="404.84" style="stroke: #000000; stroke-width: 0.8"/>
      </g>
     </g>
     <g id="text_22">
      <!-- MAE -->
      <g transform="translate(754.293705 418.461875) scale(0.1 -0.1)">
       <use xlink:href="#TimesNewRomanPS-BoldMT-4d"/>
       <use xlink:href="#TimesNewRomanPS-BoldMT-41" x="94.384766"/>
       <use xlink:href="#TimesNewRomanPS-BoldMT-45" x="166.601562"/>
      </g>
     </g>
    </g>
    <g id="xtick_7">
     <g id="line2d_16">
      <g>
       <use xlink:href="#m5e94de9994" x="883.04067" y="404.84" style="stroke: #000000; stroke-width: 0.8"/>
      </g>
     </g>
     <g id="text_23">
      <!-- R -->
      <g transform="translate(879.429732 418.461875) scale(0.1 -0.1)">
       <use xlink:href="#TimesNewRomanPS-BoldMT-52"/>
      </g>
     </g>
    </g>
    <g id="xtick_8">
     <g id="line2d_17">
      <g>
       <use xlink:href="#m5e94de9994" x="1000.12201" y="404.84" style="stroke: #000000; stroke-width: 0.8"/>
      </g>
     </g>
     <g id="text_24">
      <!-- SD -->
      <g transform="translate(993.730603 418.461875) scale(0.1 -0.1)">
       <use xlink:href="#TimesNewRomanPS-BoldMT-53"/>
       <use xlink:href="#TimesNewRomanPS-BoldMT-44" x="55.615234"/>
      </g>
     </g>
    </g>
   </g>
   <g id="matplotlib.axis_4">
    <g id="ytick_10">
     <g id="line2d_18">
      <g>
       <use xlink:href="#m45bc7a8d4e" x="579.8" y="404.84" style="stroke: #000000; stroke-width: 0.8"/>
      </g>
     </g>
     <g id="text_25">
      <!-- 0.0 -->
      <g transform="translate(560.3 408.311875) scale(0.1 -0.1)">
       <use xlink:href="#TimesNewRomanPSMT-30"/>
       <use xlink:href="#TimesNewRomanPSMT-2e" x="50"/>
       <use xlink:href="#TimesNewRomanPSMT-30" x="75"/>
      </g>
     </g>
    </g>
    <g id="ytick_11">
     <g id="line2d_19">
      <g>
       <use xlink:href="#m45bc7a8d4e" x="579.8" y="354.645481" style="stroke: #000000; stroke-width: 0.8"/>
      </g>
     </g>
     <g id="text_26">
      <!-- 0.2 -->
      <g transform="translate(560.3 358.117356) scale(0.1 -0.1)">
       <use xlink:href="#TimesNewRomanPSMT-30"/>
       <use xlink:href="#TimesNewRomanPSMT-2e" x="50"/>
       <use xlink:href="#TimesNewRomanPSMT-32" x="75"/>
      </g>
     </g>
    </g>
    <g id="ytick_12">
     <g id="line2d_20">
      <g>
       <use xlink:href="#m45bc7a8d4e" x="579.8" y="304.450962" style="stroke: #000000; stroke-width: 0.8"/>
      </g>
     </g>
     <g id="text_27">
      <!-- 0.4 -->
      <g transform="translate(560.3 307.922837) scale(0.1 -0.1)">
       <use xlink:href="#TimesNewRomanPSMT-30"/>
       <use xlink:href="#TimesNewRomanPSMT-2e" x="50"/>
       <use xlink:href="#TimesNewRomanPSMT-34" x="75"/>
      </g>
     </g>
    </g>
    <g id="ytick_13">
     <g id="line2d_21">
      <g>
       <use xlink:href="#m45bc7a8d4e" x="579.8" y="254.256443" style="stroke: #000000; stroke-width: 0.8"/>
      </g>
     </g>
     <g id="text_28">
      <!-- 0.6 -->
      <g transform="translate(560.3 257.728318) scale(0.1 -0.1)">
       <use xlink:href="#TimesNewRomanPSMT-30"/>
       <use xlink:href="#TimesNewRomanPSMT-2e" x="50"/>
       <use xlink:href="#TimesNewRomanPSMT-36" x="75"/>
      </g>
     </g>
    </g>
    <g id="ytick_14">
     <g id="line2d_22">
      <g>
       <use xlink:href="#m45bc7a8d4e" x="579.8" y="204.061924" style="stroke: #000000; stroke-width: 0.8"/>
      </g>
     </g>
     <g id="text_29">
      <!-- 0.8 -->
      <g transform="translate(560.3 207.533799) scale(0.1 -0.1)">
       <use xlink:href="#TimesNewRomanPSMT-30"/>
       <use xlink:href="#TimesNewRomanPSMT-2e" x="50"/>
       <use xlink:href="#TimesNewRomanPSMT-38" x="75"/>
      </g>
     </g>
    </g>
    <g id="ytick_15">
     <g id="line2d_23">
      <g>
       <use xlink:href="#m45bc7a8d4e" x="579.8" y="153.867405" style="stroke: #000000; stroke-width: 0.8"/>
      </g>
     </g>
     <g id="text_30">
      <!-- 1.0 -->
      <g transform="translate(560.3 157.33928) scale(0.1 -0.1)">
       <use xlink:href="#TimesNewRomanPSMT-31"/>
       <use xlink:href="#TimesNewRomanPSMT-2e" x="50"/>
       <use xlink:href="#TimesNewRomanPSMT-30" x="75"/>
      </g>
     </g>
    </g>
    <g id="ytick_16">
     <g id="line2d_24">
      <g>
       <use xlink:href="#m45bc7a8d4e" x="579.8" y="103.672886" style="stroke: #000000; stroke-width: 0.8"/>
      </g>
     </g>
     <g id="text_31">
      <!-- 1.2 -->
      <g transform="translate(560.3 107.144761) scale(0.1 -0.1)">
       <use xlink:href="#TimesNewRomanPSMT-31"/>
       <use xlink:href="#TimesNewRomanPSMT-2e" x="50"/>
       <use xlink:href="#TimesNewRomanPSMT-32" x="75"/>
      </g>
     </g>
    </g>
    <g id="ytick_17">
     <g id="line2d_25">
      <g>
       <use xlink:href="#m45bc7a8d4e" x="579.8" y="53.478367" style="stroke: #000000; stroke-width: 0.8"/>
      </g>
     </g>
     <g id="text_32">
      <!-- 1.4 -->
      <g transform="translate(560.3 56.950242) scale(0.1 -0.1)">
       <use xlink:href="#TimesNewRomanPSMT-31"/>
       <use xlink:href="#TimesNewRomanPSMT-2e" x="50"/>
       <use xlink:href="#TimesNewRomanPSMT-34" x="75"/>
      </g>
     </g>
    </g>
    <g id="text_33">
     <!-- Value -->
     <g transform="translate(553.733125 229.9525) rotate(-90) scale(0.12 -0.12)">
      <use xlink:href="#TimesNewRomanPS-BoldMT-56"/>
      <use xlink:href="#TimesNewRomanPS-BoldMT-61" x="63.091797"/>
      <use xlink:href="#TimesNewRomanPS-BoldMT-6c" x="113.091797"/>
      <use xlink:href="#TimesNewRomanPS-BoldMT-75" x="140.875"/>
      <use xlink:href="#TimesNewRomanPS-BoldMT-65" x="196.490234"/>
     </g>
    </g>
   </g>
   <g id="patch_54">
    <path d="M 579.8 404.84 
L 579.8 26.16 
" style="fill: none; stroke: #000000; stroke-width: 0.8; stroke-linejoin: miter; stroke-linecap: square"/>
   </g>
   <g id="patch_55">
    <path d="M 1069.2 404.84 
L 1069.2 26.16 
" style="fill: none; stroke: #000000; stroke-width: 0.8; stroke-linejoin: miter; stroke-linecap: square"/>
   </g>
   <g id="patch_56">
    <path d="M 579.8 404.84 
L 1069.2 404.84 
" style="fill: none; stroke: #000000; stroke-width: 0.8; stroke-linejoin: miter; stroke-linecap: square"/>
   </g>
   <g id="patch_57">
    <path d="M 579.8 26.16 
L 1069.2 26.16 
" style="fill: none; stroke: #000000; stroke-width: 0.8; stroke-linejoin: miter; stroke-linecap: square"/>
   </g>
   <g id="text_34">
    <!-- CASF2016 -->
    <g transform="translate(792.22125 20.16) scale(0.14 -0.14)">
     <defs>
      <path id="TimesNewRomanPS-BoldMT-36" d="M 3006 4325 
L 3006 4238 
Q 2441 4094 2098 3867 
Q 1756 3641 1557 3317 
Q 1359 2994 1250 2516 
Q 1388 2609 1478 2638 
Q 1681 2700 1888 2700 
Q 2363 2700 2680 2354 
Q 2997 2009 2997 1413 
Q 2997 994 2825 644 
Q 2653 294 2337 103 
Q 2022 -88 1663 -88 
Q 1272 -88 940 126 
Q 609 341 423 753 
Q 238 1166 238 1650 
Q 238 2363 580 2977 
Q 922 3591 1551 3955 
Q 2181 4319 3006 4325 
z
M 1209 2263 
Q 1184 1831 1184 1631 
Q 1184 1200 1267 797 
Q 1350 394 1494 231 
Q 1597 116 1738 116 
Q 1881 116 1993 283 
Q 2106 450 2106 963 
Q 2106 1825 1897 2153 
Q 1763 2366 1534 2366 
Q 1409 2366 1209 2263 
z
" transform="scale(0.015625)"/>
     </defs>
     <use xlink:href="#TimesNewRomanPS-BoldMT-43"/>
     <use xlink:href="#TimesNewRomanPS-BoldMT-41" x="72.216797"/>
     <use xlink:href="#TimesNewRomanPS-BoldMT-53" x="144.433594"/>
     <use xlink:href="#TimesNewRomanPS-BoldMT-46" x="200.048828"/>
     <use xlink:href="#TimesNewRomanPS-BoldMT-32" x="261.132812"/>
     <use xlink:href="#TimesNewRomanPS-BoldMT-30" x="311.132812"/>
     <use xlink:href="#TimesNewRomanPS-BoldMT-31" x="361.132812"/>
     <use xlink:href="#TimesNewRomanPS-BoldMT-36" x="411.132812"/>
    </g>
   </g>
   <g id="legend_2">
    <g id="patch_58">
     <path d="M 784.476562 104.855312 
L 864.523438 104.855312 
Q 866.523438 104.855312 866.523438 102.855312 
L 866.523438 33.16 
Q 866.523438 31.16 864.523438 31.16 
L 784.476562 31.16 
Q 782.476562 31.16 782.476562 33.16 
L 782.476562 102.855312 
Q 782.476562 104.855312 784.476562 104.855312 
z
" style="fill: #ffffff; opacity: 0.8; stroke: #cccccc; stroke-linejoin: miter"/>
    </g>
    <g id="patch_59">
     <path d="M 786.476562 42.16 
L 806.476562 42.16 
L 806.476562 35.16 
L 786.476562 35.16 
z
" style="fill: #4575b4"/>
    </g>
    <g id="text_35">
     <!-- w/o CGMP -->
     <g transform="translate(814.476562 42.16) scale(0.1 -0.1)">
      <use xlink:href="#TimesNewRomanPS-BoldMT-77"/>
      <use xlink:href="#TimesNewRomanPS-BoldMT-2f" x="72.216797"/>
      <use xlink:href="#TimesNewRomanPS-BoldMT-6f" x="100"/>
      <use xlink:href="#TimesNewRomanPS-BoldMT-20" x="150"/>
      <use xlink:href="#TimesNewRomanPS-BoldMT-43" x="175"/>
      <use xlink:href="#TimesNewRomanPS-BoldMT-47" x="247.216797"/>
      <use xlink:href="#TimesNewRomanPS-BoldMT-4d" x="325"/>
      <use xlink:href="#TimesNewRomanPS-BoldMT-50" x="419.384766"/>
     </g>
    </g>
    <g id="patch_60">
     <path d="M 786.476562 56.299062 
L 806.476562 56.299062 
L 806.476562 49.299062 
L 786.476562 49.299062 
z
" style="fill: #fdae61"/>
    </g>
    <g id="text_36">
     <!-- w/o IGMP -->
     <g transform="translate(814.476562 56.299062) scale(0.1 -0.1)">
      <use xlink:href="#TimesNewRomanPS-BoldMT-77"/>
      <use xlink:href="#TimesNewRomanPS-BoldMT-2f" x="72.216797"/>
      <use xlink:href="#TimesNewRomanPS-BoldMT-6f" x="100"/>
      <use xlink:href="#TimesNewRomanPS-BoldMT-20" x="150"/>
      <use xlink:href="#TimesNewRomanPS-BoldMT-49" x="175"/>
      <use xlink:href="#TimesNewRomanPS-BoldMT-47" x="213.916016"/>
      <use xlink:href="#TimesNewRomanPS-BoldMT-4d" x="291.699219"/>
      <use xlink:href="#TimesNewRomanPS-BoldMT-50" x="386.083984"/>
     </g>
    </g>
    <g id="patch_61">
     <path d="M 786.476562 70.438125 
L 806.476562 70.438125 
L 806.476562 63.438125 
L 786.476562 63.438125 
z
" style="fill: #66bd63"/>
    </g>
    <g id="text_37">
     <!-- w/o BAR -->
     <g transform="translate(814.476562 70.438125) scale(0.1 -0.1)">
      <use xlink:href="#TimesNewRomanPS-BoldMT-77"/>
      <use xlink:href="#TimesNewRomanPS-BoldMT-2f" x="72.216797"/>
      <use xlink:href="#TimesNewRomanPS-BoldMT-6f" x="100"/>
      <use xlink:href="#TimesNewRomanPS-BoldMT-20" x="150"/>
      <use xlink:href="#TimesNewRomanPS-BoldMT-42" x="175"/>
      <use xlink:href="#TimesNewRomanPS-BoldMT-41" x="241.699219"/>
      <use xlink:href="#TimesNewRomanPS-BoldMT-52" x="313.916016"/>
     </g>
    </g>
    <g id="patch_62">
     <path d="M 786.476562 84.577187 
L 806.476562 84.577187 
L 806.476562 77.577187 
L 786.476562 77.577187 
z
" style="fill: #d73027"/>
    </g>
    <g id="text_38">
     <!-- w/o ABR -->
     <g transform="translate(814.476562 84.577187) scale(0.1 -0.1)">
      <use xlink:href="#TimesNewRomanPS-BoldMT-77"/>
      <use xlink:href="#TimesNewRomanPS-BoldMT-2f" x="72.216797"/>
      <use xlink:href="#TimesNewRomanPS-BoldMT-6f" x="100"/>
      <use xlink:href="#TimesNewRomanPS-BoldMT-20" x="150"/>
      <use xlink:href="#TimesNewRomanPS-BoldMT-41" x="169.5"/>
      <use xlink:href="#TimesNewRomanPS-BoldMT-42" x="241.716797"/>
      <use xlink:href="#TimesNewRomanPS-BoldMT-52" x="308.416016"/>
     </g>
    </g>
    <g id="patch_63">
     <path d="M 786.476562 98.71625 
L 806.476562 98.71625 
L 806.476562 91.71625 
L 786.476562 91.71625 
z
" style="fill: #938ed5"/>
    </g>
    <g id="text_39">
     <!-- DCMP -->
     <g transform="translate(814.476562 98.71625) scale(0.1 -0.1)">
      <use xlink:href="#TimesNewRomanPS-BoldMT-44"/>
      <use xlink:href="#TimesNewRomanPS-BoldMT-43" x="72.216797"/>
      <use xlink:href="#TimesNewRomanPS-BoldMT-4d" x="144.433594"/>
      <use xlink:href="#TimesNewRomanPS-BoldMT-50" x="238.818359"/>
     </g>
    </g>
   </g>
  </g>
 </g>
 <defs>
  <clipPath id="p7817d8938f">
   <rect x="45.2" y="26.16" width="489.4" height="378.68"/>
  </clipPath>
  <clipPath id="pa39c10e861">
   <rect x="579.8" y="26.16" width="489.4" height="378.68"/>
  </clipPath>
 </defs>
</svg>
